<svg xmlns="http://www.w3.org/2000/svg" viewBox="0 0 135.467 135.467" height="36" width="36"><g fill="none" stroke-width=".4" stroke="#39af6b"><path d="M31.393 67.757L67.77 31.382l36.375 36.375-36.375 36.375z" stroke-linecap="square" stroke-width="3.9280360000000005"/><path d="M67.769 2.801L41.786 28.784v12.99h-12.99L2.812 67.758 28.795 93.74h12.991v12.99l25.983 25.983 25.982-25.982V93.74h12.991l25.982-25.983-25.982-25.982H93.751V28.784z" stroke-linecap="square" stroke-width="3.9280360000000005"/><path d="M113.7 21.827V58.57l-9.187 9.186 9.186 9.186v36.745H76.955l-9.186-9.186-9.186 9.186H21.838V76.943l9.186-9.186-9.186-9.186V21.827h36.745l9.186 9.186 9.186-9.186z" stroke-linecap="square" stroke-width="3.9280360000000005"/><path d="M41.786 78.15v15.59h15.59M41.786 57.364v-15.59h15.59M78.162 41.775H93.75v15.59M93.751 78.15v15.59h-15.59" stroke-width="3.9280360000000005"/></g></svg>